<svg id="Layer_1" data-name="Layer 1" xmlns="http://www.w3.org/2000/svg" viewBox="0 0 1000 1000"><defs><style>.cls-1{fill:#8c8c8c;}</style></defs><title>logo</title><path class="cls-1" d="M536.06,361.21v-142h71c78.45,0,142.13,63.6,142.13,142h0V645.13a141.93,141.93,0,0,1-80.88,128.1h0a35.59,35.59,0,0,1-40.44-6.93h0L454.47,522.18a35.53,35.53,0,0,0-60.65,25.09h0V745.51A35.54,35.54,0,0,1,346.44,779h0a142,142,0,0,1-94.75-133.84h0V361.21a142,142,0,0,1,80.88-128.1h0A35.58,35.58,0,0,1,373,240h0L546.35,484.17A35.55,35.55,0,0,0,607,459.07h0V396.59a35.41,35.41,0,0,0-35.42-35.38H536.06"/></svg>