<svg xmlns="http://www.w3.org/2000/svg" width="2500" height="2500" viewBox="0 0 2500 2500" fill="none">
	<rect width="2500" height="2500" rx="261" fill="#3C3C3C"/>
	<path d="M904 1685.15L785.924 2072.37C785.924 2072.37 777.676 2113.61 696.878 2113.61L433.267 2114C433.267 2114 401.511 2114 419.537 2065.3L712.176 1147.13C712.176 1147.13 720.414 1114.53 729.436 1142.02C738.067 1169.51 904 1685.15 904 1685.15Z" fill="#5F6FFF"/>
	<path d="M1642 806.849L1760.32 419.628C1760.32 419.628 1768.58 378.393 1849.55 378.393L2113.69 378C2113.69 378 2145.51 378 2127.45 426.697L1834.22 1344.87C1834.22 1344.87 1825.96 1377.47 1816.92 1349.98C1808.27 1322.49 1642 806.849 1642 806.849Z" fill="#5F6FFF"/>
	<path d="M1331.76 1819.75C1426.8 1819.75 1412.19 1790.55 1412.19 1790.55L1065.3 733.834C1047.33 676.255 1006.43 679.021 1006.43 679.021L759.291 679.471C716.374 679.471 730.083 710.471 730.083 710.471L1065.3 1751.46C1089.85 1822 1120.12 1822 1120.12 1822L1331.76 1819.75Z" fill="#ACB4FF"/>
	<path d="M1749.76 1817.75C1844.8 1817.75 1830.19 1788.55 1830.19 1788.55L1483.3 731.834C1465.33 674.255 1424.43 677.021 1424.43 677.021L1177.29 677.471C1134.37 677.471 1148.08 708.471 1148.08 708.471L1483.3 1749.46C1507.85 1820 1538.12 1820 1538.12 1820L1749.76 1817.75Z" fill="#ACB4FF"/>
</svg>