<svg width="2500" height="2499" viewBox="0 0 2500 2499" fill="none" xmlns="http://www.w3.org/2000/svg">
<g clip-path="url(#clip0)">
<rect y="2" width="2500" height="2499" rx="261" fill="#3C3C3C"/>
<path d="M879.653 1714.32L753.468 2127.52C753.468 2127.52 744.653 2171.52 658.306 2171.52L376.59 2171.94C376.59 2171.94 342.653 2171.94 361.918 2119.98L674.655 1140.21C674.655 1140.21 683.459 1105.43 693.101 1134.76C702.324 1164.1 879.653 1714.32 879.653 1714.32Z" fill="#5F6FFF"/>
<path d="M1667 777.616L1793.19 364.421C1793.19 364.421 1802 320.419 1888.35 320.419L2170.06 320C2170.06 320 2204 320 2184.74 371.964L1872 1351.73C1872 1351.73 1863.19 1386.51 1853.55 1357.18C1844.33 1327.84 1667 777.616 1667 777.616Z" fill="#5F6FFF"/>
<path d="M1344.68 1959.43C1463 1959.43 1444.82 1923.07 1444.82 1923.07L1012.93 607.278C990.569 535.582 939.648 539.027 939.648 539.027L631.957 539.586C578.526 539.586 595.594 578.187 595.594 578.187L1012.93 1874.4C1043.5 1962.23 1081.18 1962.23 1081.18 1962.23L1344.68 1959.43Z" fill="#ACB4FF"/>
<path d="M1865.68 1957.43C1984 1957.43 1965.82 1921.07 1965.82 1921.07L1533.93 605.278C1511.57 533.582 1460.65 537.027 1460.65 537.027L1152.96 537.586C1099.53 537.586 1116.59 576.187 1116.59 576.187L1533.93 1872.4C1564.5 1960.23 1602.18 1960.23 1602.18 1960.23L1865.68 1957.43Z" fill="#ACB4FF"/>
</g>
<defs>
<clipPath id="clip0">
<rect width="2500" height="2499" fill="white"/>
</clipPath>
</defs>
</svg>
